<svg id="Layer_1" data-name="Layer 1" xmlns="http://www.w3.org/2000/svg" xmlns:xlink="http://www.w3.org/1999/xlink" viewBox="0 0 512 512"><defs><pattern id="USGS_8_Sewage_Disposal" data-name="USGS 8 Sewage Disposal" width="72" height="74.8" patternTransform="translate(-498.35 599.11) scale(2.71 2.71)" patternUnits="userSpaceOnUse" viewBox="0 0 72 74.8"><rect width="72" height="74.8" fill="none"/><line y1="73.95" x2="72" y2="73.95" fill="none" stroke="#1f191a" stroke-linecap="square" stroke-width="0.3"/><line y1="72.25" x2="72" y2="72.25" fill="none" stroke="#1f191a" stroke-linecap="square" stroke-width="0.3"/><line y1="70.55" x2="72" y2="70.55" fill="none" stroke="#1f191a" stroke-linecap="square" stroke-width="0.3"/><line y1="68.85" x2="72" y2="68.85" fill="none" stroke="#1f191a" stroke-linecap="square" stroke-width="0.3"/><line y1="67.15" x2="72" y2="67.15" fill="none" stroke="#1f191a" stroke-linecap="square" stroke-width="0.3"/><line y1="65.45" x2="72" y2="65.45" fill="none" stroke="#1f191a" stroke-linecap="square" stroke-width="0.3"/><line y1="63.75" x2="72" y2="63.75" fill="none" stroke="#1f191a" stroke-linecap="square" stroke-width="0.3"/><line y1="62.05" x2="72" y2="62.05" fill="none" stroke="#1f191a" stroke-linecap="square" stroke-width="0.3"/><line y1="60.35" x2="72" y2="60.35" fill="none" stroke="#1f191a" stroke-linecap="square" stroke-width="0.3"/><line y1="58.65" x2="72" y2="58.65" fill="none" stroke="#1f191a" stroke-linecap="square" stroke-width="0.3"/><line y1="56.95" x2="72" y2="56.95" fill="none" stroke="#1f191a" stroke-linecap="square" stroke-width="0.3"/><line y1="55.25" x2="72" y2="55.25" fill="none" stroke="#1f191a" stroke-linecap="square" stroke-width="0.3"/><line y1="53.55" x2="72" y2="53.55" fill="none" stroke="#1f191a" stroke-linecap="square" stroke-width="0.3"/><line y1="51.85" x2="72" y2="51.85" fill="none" stroke="#1f191a" stroke-linecap="square" stroke-width="0.3"/><line y1="50.15" x2="72" y2="50.15" fill="none" stroke="#1f191a" stroke-linecap="square" stroke-width="0.3"/><line y1="48.45" x2="72" y2="48.45" fill="none" stroke="#1f191a" stroke-linecap="square" stroke-width="0.3"/><line y1="46.75" x2="72" y2="46.75" fill="none" stroke="#1f191a" stroke-linecap="square" stroke-width="0.3"/><line y1="45.05" x2="72" y2="45.05" fill="none" stroke="#1f191a" stroke-linecap="square" stroke-width="0.3"/><line y1="43.35" x2="72" y2="43.35" fill="none" stroke="#1f191a" stroke-linecap="square" stroke-width="0.3"/><line y1="41.65" x2="72" y2="41.65" fill="none" stroke="#1f191a" stroke-linecap="square" stroke-width="0.3"/><line y1="39.95" x2="72" y2="39.95" fill="none" stroke="#1f191a" stroke-linecap="square" stroke-width="0.3"/><line y1="38.25" x2="72" y2="38.25" fill="none" stroke="#1f191a" stroke-linecap="square" stroke-width="0.3"/><line y1="36.55" x2="72" y2="36.55" fill="none" stroke="#1f191a" stroke-linecap="square" stroke-width="0.3"/><line y1="34.85" x2="72" y2="34.85" fill="none" stroke="#1f191a" stroke-linecap="square" stroke-width="0.3"/><line y1="33.15" x2="72" y2="33.15" fill="none" stroke="#1f191a" stroke-linecap="square" stroke-width="0.3"/><line y1="31.45" x2="72" y2="31.45" fill="none" stroke="#1f191a" stroke-linecap="square" stroke-width="0.3"/><line y1="29.75" x2="72" y2="29.75" fill="none" stroke="#1f191a" stroke-linecap="square" stroke-width="0.3"/><line y1="28.05" x2="72" y2="28.05" fill="none" stroke="#1f191a" stroke-linecap="square" stroke-width="0.3"/><line y1="26.35" x2="72" y2="26.35" fill="none" stroke="#1f191a" stroke-linecap="square" stroke-width="0.3"/><line y1="24.65" x2="72" y2="24.65" fill="none" stroke="#1f191a" stroke-linecap="square" stroke-width="0.3"/><line y1="22.95" x2="72" y2="22.95" fill="none" stroke="#1f191a" stroke-linecap="square" stroke-width="0.3"/><line y1="21.25" x2="72" y2="21.25" fill="none" stroke="#1f191a" stroke-linecap="square" stroke-width="0.3"/><line y1="19.55" x2="72" y2="19.55" fill="none" stroke="#1f191a" stroke-linecap="square" stroke-width="0.3"/><line y1="17.85" x2="72" y2="17.85" fill="none" stroke="#1f191a" stroke-linecap="square" stroke-width="0.3"/><line y1="16.15" x2="72" y2="16.15" fill="none" stroke="#1f191a" stroke-linecap="square" stroke-width="0.3"/><line y1="14.45" x2="72" y2="14.45" fill="none" stroke="#1f191a" stroke-linecap="square" stroke-width="0.3"/><line y1="12.75" x2="72" y2="12.75" fill="none" stroke="#1f191a" stroke-linecap="square" stroke-width="0.3"/><line y1="11.05" x2="72" y2="11.05" fill="none" stroke="#1f191a" stroke-linecap="square" stroke-width="0.3"/><line y1="9.35" x2="72" y2="9.35" fill="none" stroke="#1f191a" stroke-linecap="square" stroke-width="0.3"/><line y1="7.65" x2="72" y2="7.65" fill="none" stroke="#1f191a" stroke-linecap="square" stroke-width="0.3"/><line y1="5.95" x2="72" y2="5.95" fill="none" stroke="#1f191a" stroke-linecap="square" stroke-width="0.3"/><line y1="4.25" x2="72" y2="4.25" fill="none" stroke="#1f191a" stroke-linecap="square" stroke-width="0.3"/><line y1="2.55" x2="72" y2="2.55" fill="none" stroke="#1f191a" stroke-linecap="square" stroke-width="0.3"/><line y1="0.85" x2="72" y2="0.85" fill="none" stroke="#1f191a" stroke-linecap="square" stroke-width="0.3"/><line x1="-21.5" y1="7.65" x2="-10.25" y2="7.65" fill="none" stroke="#1f191a" stroke-linecap="square" stroke-width="0.3"/></pattern></defs><title>instagram-other</title><path d="M512,281.33C512,407.56,409.6,510,283.37,510c-126,0-228.26-102.49-228.26-228.71S157.38,52.87,283.37,52.87C409.6,52.87,512,155.11,512,281.33Z" fill="url(#USGS_8_Sewage_Disposal)"/><path d="M495,264.36c0,126.23-102.4,228.71-228.63,228.71-126,0-228.26-102.49-228.26-228.71S140.42,35.9,266.41,35.9C392.65,35.9,495,138.13,495,264.36Z" fill="url(#USGS_8_Sewage_Disposal)"/><path d="M469.61,245.26C469.61,371.49,367.21,474,241,474,115,474,12.72,371.49,12.72,245.26S115,16.8,241,16.8C367.21,16.8,469.61,119,469.61,245.26Z" fill="#1f191a"/><path d="M463.25,234.66c0,126.23-102.4,228.71-228.63,228.71-126,0-228.26-102.49-228.26-228.71S108.63,6.19,234.62,6.19C360.85,6.19,463.25,108.43,463.25,234.66Z" fill="#333"/><path d="M469.61,245.26C469.61,371.49,367.21,474,241,474,115,474,12.72,371.49,12.72,245.26S115,16.8,241,16.8C367.21,16.8,469.61,119,469.61,245.26Z" fill="none" stroke="#1f191a" stroke-width="2.12"/><path d="M459,232.53c0,126.23-102.4,228.71-228.63,228.71-126,0-228.26-102.49-228.26-228.71S104.39,4.07,230.38,4.07C356.61,4.07,459,106.31,459,232.53Z" fill="#fff"/><path d="M459,232.53c0,126.23-102.4,228.71-228.63,228.71-126,0-228.26-102.49-228.26-228.71S104.39,4.07,230.38,4.07C356.61,4.07,459,106.31,459,232.53Z" fill="#fff"/><path d="M459,232.53c0,126.23-102.4,228.71-228.63,228.71-126,0-228.26-102.49-228.26-228.71S104.39,4.07,230.38,4.07C356.61,4.07,459,106.31,459,232.53Z" fill="none" stroke="#1f191a" stroke-width="4.24"/><path d="M307.68,128.1h-154c-18.26,0-27.65,9.51-27.65,27.9V309.85c0,17.64,9.71,27.37,27,27.37H307.68c17.85,0,27.45-9.73,27.45-27.69v-154C335.13,137.61,325.53,128.1,307.68,128.1Zm-17,23.56c20.69,0,20.69,0,20.69,20.93,0,20.29,0,20.29-20.27,20.29-20.69,0-20.69,0-20.69-20.71C270.42,151.66,270.42,151.66,290.69,151.66Zm-60,40.37c21.86,0,40.54,18.81,40.33,40.58-.22,22.4-19,40.89-41,40.47S189.44,254,190,232.08,208.87,192,230.72,192ZM311.38,301c-.11,9.73-2.75,12.37-12.45,12.37H162.2c-9.6,0-12.35-2.64-12.35-12.37,0-25.35.21-50.93-.32-76.28,0-7.2,2-8.88,8.77-8.67,9.5.84,9.71.42,8.55,9.61-3.7,32.55,18.69,63.83,50.67,70.06,32.73,6.34,65.57-13.42,74.65-44.91a64.37,64.37,0,0,0,1.37-30c-.75-3.59.21-4.33,3.37-4.33,14.46-1.06,14.46-1.37,14.46,13.53Z" fill="#434040" fill-rule="evenodd"/></svg>